<svg width="100" height="100" viewBox="0 0 100 100" fill="none" xmlns="http://www.w3.org/2000/svg">
<path d="M51.6028 14.2192H61.2806L62.056 9.7226H46.6944L43.0546 30.2774H48.7743L50.1325 22.4922H57.959L58.739 17.9955H50.9394L51.6028 14.2192Z" fill="black"/>
<path d="M64.0597 9.7226L60.4199 30.2774H66.1082L69.7481 9.7226H64.0597Z" fill="black"/>
<path d="M83.7873 17.9955H75.9877L76.6511 14.2192H86.3289L87.1089 9.7226H71.7428L68.103 30.2774H73.8227L75.1809 22.4922H83.0074L83.7873 17.9955Z" fill="black"/>
<path d="M91.8783 9.69128L81.1068 30.2729H86.5934L88.3281 26.6711H95.4598L95.9215 30.2729H101.583L98.2614 9.69128H91.8783V9.69128ZM90.3766 22.3759L93.8416 14.9665H93.9582L94.9129 22.3759H90.3766Z" fill="black"/>
<path d="M112.744 25.6376L114.703 23.8881C117.478 21.4094 121.66 18.255 121.66 14.1745C121.66 10.4966 118.648 9.18567 115.376 9.18567C111.225 9.18567 107.63 11.0246 106.841 15.2259C106.81 15.3154 106.666 16.2774 106.635 16.3624H111.808C112.041 14.9038 112.48 13.3557 114.322 13.3557C115.317 13.3557 116.133 13.8792 116.133 14.962C116.133 16.8859 113.708 19.1051 112.189 20.5637L105.29 27.1275L104.734 30.2774H119.146L119.934 25.7852H112.713L112.744 25.6376Z" fill="black"/>
<path d="M130.908 23.8881C133.682 21.4094 137.864 18.255 137.864 14.1745C137.864 10.4966 134.852 9.18567 131.58 9.18567C127.429 9.18567 123.834 11.0246 123.045 15.2259C123.014 15.3154 122.87 16.2774 122.839 16.3624H128.012C128.245 14.9038 128.684 13.3557 130.527 13.3557C131.522 13.3557 132.338 13.8792 132.338 14.962C132.338 16.8859 129.912 19.1051 128.393 20.5637L121.494 27.1275L120.938 30.2774H135.35L136.139 25.7852H128.917L128.949 25.6376L130.908 23.8881Z" fill="black"/>
</svg>